<svg width="55" height="44" viewBox="0 0 55 44" fill="none" xmlns="http://www.w3.org/2000/svg">
<path d="M0 0.0660516C1.146 0.0516378 2.29196 0.0410946 3.43803 0.0340911C3.82766 0.0311706 4.21728 0.0272043 4.60689 0.0221592C5.16785 0.0150789 5.72885 0.0121072 6.28984 0.00923301C6.79577 0.00466267 6.79577 0.00466267 7.31193 0C8.1698 0.0643686 8.6263 0.141002 9.3222 0.647874C9.65345 1.12273 9.65345 1.12273 9.91697 1.68197C10.0625 1.98629 10.0625 1.98629 10.2111 2.29675C10.3566 2.61456 10.3566 2.61456 10.5051 2.9388C10.6055 3.14842 10.7058 3.35805 10.8091 3.57403C11.2629 4.53693 11.622 5.42373 11.8646 6.46609C12.0778 6.46529 12.2911 6.46448 12.5108 6.46366C17.6951 6.4444 22.8794 6.42995 28.0637 6.42088C30.5708 6.41637 33.0779 6.41023 35.5849 6.40025C37.7697 6.39157 39.9544 6.38593 42.1391 6.38398C43.2963 6.38284 44.4535 6.38016 45.6107 6.37382C46.6993 6.36791 47.7878 6.36607 48.8765 6.36738C49.2765 6.36714 49.6766 6.3654 50.0766 6.36206C50.6219 6.35773 51.1671 6.35928 51.7124 6.36114C52.0178 6.36034 52.3233 6.35953 52.638 6.35871C53.3908 6.46609 53.3908 6.46609 53.9223 6.86681C54.2382 7.33883 54.2382 7.33883 54.1926 8.01419C53.9324 8.87007 53.6231 9.67497 53.2738 10.4968C53.1307 10.8355 52.9875 11.1741 52.8401 11.523C52.6824 11.892 52.5246 12.2609 52.3667 12.6298C52.2039 13.0125 52.0412 13.3952 51.8785 13.778C51.5314 14.5942 51.1834 15.4099 50.835 16.2255C50.3614 17.3356 49.8925 18.4477 49.425 19.5605C49.0459 20.462 48.6649 21.3627 48.2836 22.2633C48.0994 22.6993 47.9158 23.1357 47.7329 23.5723C47.4754 24.1868 47.2151 24.7999 46.9542 25.4128C46.8059 25.764 46.6577 26.1152 46.505 26.4771C45.7115 28.0928 44.8097 29.2009 43.243 30.0384C41.1857 30.7066 38.9455 30.4944 36.811 30.4628C36.2699 30.4601 35.7289 30.4581 35.1878 30.4566C33.7709 30.4511 32.3541 30.4368 30.9372 30.4207C29.4885 30.4057 28.0398 30.3991 26.5911 30.3918C23.7538 30.3763 20.9166 30.3507 18.0794 30.3208C18.0794 32.0488 18.0794 33.7768 18.0794 35.5572C27.3084 35.5572 36.5374 35.5572 46.046 35.5572C46.046 36.3252 46.046 37.0932 46.046 37.8845C42.1884 37.9047 38.3308 37.9202 34.4731 37.9297C32.682 37.9343 30.891 37.9405 29.0999 37.9503C27.3726 37.9598 25.6454 37.965 23.9182 37.9673C23.2579 37.9689 22.5977 37.9721 21.9374 37.9768C21.0154 37.9831 20.0935 37.984 19.1714 37.9836C18.8961 37.9867 18.6208 37.9898 18.3371 37.9931C18.0868 37.9919 17.8364 37.9907 17.5785 37.9894C17.2512 37.9906 17.2512 37.9906 16.9172 37.9919C16.6535 37.9387 16.6535 37.9387 16.3845 37.8845C15.7313 36.8755 15.7576 36.5132 15.772 35.3265C15.763 30.6644 15.251 26.7635 13.7964 22.3402C13.4637 21.2912 13.2053 20.2305 12.9593 19.1571C12.3682 16.655 11.7076 14.1772 11.0171 11.7025C10.9336 11.3985 10.9336 11.3985 10.8484 11.0884C10.0291 8.1287 8.94432 5.45008 7.62725 2.68425C5.11026 2.58825 2.59327 2.49225 0 2.39334C0 1.62533 0 0.857329 0 0.0660516ZM12.7121 8.79338C13.5888 12.6577 13.5888 12.6577 14.652 16.423C15.16 18.1654 15.5893 19.9289 16.0224 21.6925C16.399 23.2108 16.8088 24.7119 17.2595 26.2088C17.3604 26.5445 17.4613 26.8802 17.5653 27.226C17.6417 27.4793 17.7182 27.7326 17.7969 27.9935C20.8984 28.0205 23.9998 28.0412 27.1013 28.0538C28.5415 28.0599 29.9817 28.0681 31.4219 28.0813C32.8121 28.0939 34.2022 28.1009 35.5925 28.1039C36.1225 28.1061 36.6526 28.1103 37.1826 28.1165C37.9258 28.125 38.6687 28.1261 39.412 28.1256C39.6305 28.1298 39.8489 28.134 40.0739 28.1383C41.5451 28.1268 42.3728 27.7897 43.5036 26.8299C44.3756 25.6671 44.9486 24.4486 45.5097 23.1026C45.5884 22.9155 45.667 22.7285 45.748 22.5357C46.0018 21.9314 46.2534 21.3261 46.5051 20.7207C46.8559 19.8832 47.2079 19.0463 47.56 18.2094C47.6471 18.0019 47.7342 17.7945 47.8239 17.5808C48.7212 15.4491 49.6577 13.3362 50.6096 11.2298C50.7168 10.9905 50.824 10.7513 50.9344 10.5048C51.0742 10.196 51.0742 10.196 51.2168 9.88103C51.4483 9.37598 51.4483 9.37598 51.4133 8.79338C38.6419 8.79338 25.8705 8.79338 12.7121 8.79338Z" fill="#080808"/>
<path d="M39.2664 38.1094C40.0602 38.6312 40.5403 38.9876 40.9614 39.8549C41.0674 41.3009 41.0062 42.1971 40.1139 43.3458C39.2055 44.0232 38.3878 44.086 37.289 43.9276C36.4628 43.3966 35.7539 42.8022 35.3116 41.8912C35.1947 40.5373 35.365 39.7814 36.159 38.6912C37.2 37.9765 38.0573 37.9055 39.2664 38.1094Z" fill="#070707"/>
<path d="M25.424 38.4002C26.2001 38.9175 26.3694 39.264 26.8364 40.1457C26.9568 41.3204 26.7275 42.1825 26.1302 43.1821C25.0905 43.8512 24.1019 44.0261 22.8816 43.9275C21.8823 43.3273 21.5527 43.022 21.1866 41.8912C21.0768 40.6694 21.0569 40.0596 21.7163 39.0184C22.8524 37.8484 23.9319 37.9771 25.424 38.4002Z" fill="#060606"/>
</svg>
