<svg width="43" height="47" viewBox="0 0 43 47" fill="none" xmlns="http://www.w3.org/2000/svg">
<path d="M21.4999 9.94232L20.5324 10.8823C20.6578 11.0135 20.8081 11.1179 20.9743 11.1892C21.1405 11.2605 21.3193 11.2972 21.4999 11.2972C21.6805 11.2972 21.8593 11.2605 22.0256 11.1892C22.1918 11.1179 22.3421 11.0135 22.4674 10.8823L21.4999 9.94232ZM12.5434 29.6823C12.2678 29.4536 11.9134 29.3448 11.5583 29.3797C11.2031 29.4146 10.8762 29.5904 10.6496 29.8685C10.4229 30.1466 10.315 30.5041 10.3496 30.8624C10.3842 31.2208 10.5585 31.5506 10.8341 31.7792L12.5434 29.6823ZM4.196 24.243C4.2807 24.3992 4.39507 24.537 4.53257 24.6486C4.67007 24.7602 4.82802 24.8434 4.99738 24.8934C5.16675 24.9435 5.34422 24.9593 5.51967 24.9402C5.69512 24.921 5.8651 24.8671 6.01992 24.7817C6.17474 24.6962 6.31135 24.5808 6.42197 24.4421C6.53259 24.3034 6.61504 24.144 6.66462 23.9731C6.7142 23.8022 6.72994 23.6232 6.71093 23.4462C6.69192 23.2691 6.63854 23.0976 6.55384 22.9414L4.196 24.243ZM4.927 16.5169C4.927 12.6304 7.10388 9.36928 10.0763 7.99724C12.9644 6.66497 16.8452 7.01747 20.5324 10.8823L22.4674 9.00413C18.0958 4.41801 13.0146 3.66059 8.95825 5.53155C4.9915 7.36274 2.2395 11.6144 2.2395 16.5169H4.927ZM15.2237 35.25C16.1428 35.9803 17.1283 36.7576 18.1262 37.3469C19.1242 37.9344 20.2637 38.4135 21.4999 38.4135V35.7019C20.9445 35.7019 20.2923 35.485 19.4825 35.006C18.6709 34.5287 17.8306 33.8707 16.8882 33.1206L15.2237 35.25ZM27.7761 35.25C30.331 33.2164 33.599 30.8881 36.1611 27.9759C38.7716 25.0112 40.7603 21.3362 40.7603 16.5169H38.0728C38.0728 20.4902 36.4603 23.5506 34.1527 26.1754C31.7966 28.8508 28.8278 30.9604 26.1117 33.1206L27.7761 35.25ZM40.7603 16.5169C40.7603 11.6144 38.0101 7.36274 34.0416 5.53155C29.9853 3.66059 24.9077 4.41801 20.5324 9.00232L22.4674 10.8823C26.1547 7.01928 30.0354 6.66497 32.9236 7.99724C35.896 9.36928 38.0728 12.6286 38.0728 16.5169H40.7603ZM26.1117 33.1206C25.1693 33.8707 24.329 34.5287 23.5173 35.006C22.7075 35.4832 22.0553 35.7019 21.4999 35.7019V38.4135C22.7362 38.4135 23.8757 37.9344 24.8736 37.3469C25.8734 36.7576 26.857 35.9803 27.7761 35.25L26.1117 33.1206ZM16.8882 33.1206C15.462 31.9871 14.0125 30.9025 12.5434 29.6823L10.8341 31.7792C12.3212 33.0139 13.8943 34.1925 15.2237 35.25L16.8882 33.1206ZM6.55384 22.9432C5.47455 20.9772 4.91434 18.7643 4.927 16.5169H2.2395C2.2395 19.4779 2.992 22.0213 4.196 24.243L6.55384 22.9432Z" fill="black"/>
</svg>
