<svg width="739" height="176" viewBox="0 0 739 176" fill="none" xmlns="http://www.w3.org/2000/svg">
<g filter="url(#filter0_d_305_8)">
<path d="M665.55 109.857C667.984 109.857 669.905 109.347 671.314 108.326C672.787 107.233 673.556 105.338 673.62 102.641L674.1 71.5896C674.1 70.2776 673.876 69.2206 673.428 68.4188C673.043 67.6171 672.467 66.9975 671.698 66.5601C670.93 66.1228 670.001 65.8312 668.912 65.6855C667.888 65.5397 666.767 65.4668 665.55 65.4668H647.873C645.439 65.4668 643.517 65.8312 642.108 66.5601C640.763 67.2162 640.059 68.8926 639.995 71.5896L639.611 103.625C639.611 104.937 639.803 106.03 640.187 106.905C640.571 107.707 641.116 108.326 641.82 108.764C642.589 109.201 643.485 109.493 644.51 109.638C645.535 109.784 646.656 109.857 647.873 109.857H665.55ZM670.065 60C671.282 60 672.435 60.2916 673.524 60.8747C674.613 61.3849 675.541 62.1138 676.31 63.0614C677.142 63.9361 677.783 65.0294 678.231 66.3415C678.744 67.5806 679 68.8926 679 70.2776V105.156C679 106.613 678.744 107.962 678.231 109.201C677.783 110.44 677.142 111.534 676.31 112.481C675.541 113.356 674.613 114.085 673.524 114.668C672.435 115.178 671.282 115.433 670.065 115.433H643.646C642.429 115.433 641.276 115.178 640.187 114.668C639.098 114.085 638.137 113.356 637.305 112.481C636.536 111.534 635.896 110.44 635.383 109.201C634.935 107.962 634.711 106.613 634.711 105.156V70.2776C634.711 68.8926 634.935 67.5806 635.383 66.3415C635.896 65.0294 636.536 63.9361 637.305 63.0614C638.137 62.1138 639.098 61.3849 640.187 60.8747C641.276 60.2916 642.429 60 643.646 60H670.065Z" fill="white"/>
<path d="M607.138 109.857C609.572 109.857 611.493 109.347 612.902 108.326C614.375 107.233 615.144 105.338 615.208 102.641L615.688 71.5896C615.688 70.2776 615.464 69.2206 615.016 68.4188C614.631 67.6171 614.055 66.9975 613.286 66.5601C612.518 66.1228 611.589 65.8312 610.5 65.6855C609.476 65.5397 608.355 65.4668 607.138 65.4668H589.461C587.027 65.4668 585.105 65.8312 583.696 66.5601C582.351 67.2162 581.647 68.8926 581.583 71.5896L581.199 103.625C581.199 104.937 581.391 106.03 581.775 106.905C582.159 107.707 582.704 108.326 583.408 108.764C584.177 109.201 585.073 109.493 586.098 109.638C587.123 109.784 588.244 109.857 589.461 109.857H607.138ZM611.653 60C612.87 60 614.023 60.2916 615.112 60.8747C616.201 61.3849 617.129 62.1138 617.898 63.0614C618.73 63.9361 619.371 65.0294 619.819 66.3415C620.332 67.5806 620.588 68.8926 620.588 70.2776V105.156C620.588 106.613 620.332 107.962 619.819 109.201C619.371 110.44 618.73 111.534 617.898 112.481C617.129 113.356 616.201 114.085 615.112 114.668C614.023 115.178 612.87 115.433 611.653 115.433H585.233C584.017 115.433 582.864 115.178 581.775 114.668C580.686 114.085 579.725 113.356 578.893 112.481C578.124 111.534 577.484 110.44 576.971 109.201C576.523 107.962 576.299 106.613 576.299 105.156V70.2776C576.299 68.8926 576.523 67.5806 576.971 66.3415C577.484 65.0294 578.124 63.9361 578.893 63.0614C579.725 62.1138 580.686 61.3849 581.775 60.8747C582.864 60.2916 584.017 60 585.233 60H611.653Z" fill="white"/>
<path d="M545.165 115.433H540.265V65.4668H522.78V60H562.746V65.4668H545.165V115.433Z" fill="white"/>
<path d="M495.009 115.433H490.109V65.4668H472.624V60H512.59V65.4668H495.009V115.433Z" fill="white"/>
<path d="M422.749 89.958H457.335V75.307C457.335 72.61 456.886 70.314 455.99 68.4188C455.093 66.5237 453.46 65.5761 451.09 65.5761L428.801 65.6855C426.432 65.6855 424.831 66.633 423.998 68.5282C423.165 70.3504 422.749 72.61 422.749 75.307V89.958ZM453.204 60C455.701 60 457.815 61.0205 459.544 63.0614C461.338 65.0294 462.234 67.4348 462.234 70.2776V115.433H457.335V95.5341H422.749V115.433H417.849V70.2776C417.849 68.8926 418.074 67.5806 418.522 66.3415C419.034 65.0294 419.675 63.9361 420.443 63.0614C421.276 62.1138 422.237 61.3849 423.325 60.8747C424.414 60.2916 425.599 60 426.88 60H453.204Z" fill="white"/>
<path d="M387.004 115.433H382.104V65.4668H364.619V60H404.585V65.4668H387.004V115.433Z" fill="white"/>
<path d="M296.676 84.9285H312.816V90.5047H296.676V109.966H331.935V115.433H291.873V60H331.935V65.4668H296.676V84.9285Z" fill="white"/>
<path d="M269.09 60C271.587 60 273.701 61.0205 275.43 63.0614C277.16 65.0294 278.024 67.4713 278.024 70.3869V75.5257H273.221V75.307C273.221 72.61 272.708 70.314 271.684 68.4188C270.659 66.5237 268.962 65.5761 266.592 65.5761L245.168 65.3574C242.734 65.3574 241.037 66.3415 240.076 68.3095C239.115 70.2776 238.635 72.61 238.635 75.307V100.126C238.635 101.438 238.731 102.714 238.923 103.953C239.115 105.119 239.436 106.176 239.884 107.124C240.396 107.998 241.037 108.727 241.805 109.31C242.638 109.821 243.663 110.076 244.88 110.076L266.592 110.185C268.962 110.185 270.659 109.201 271.684 107.233C272.708 105.192 273.221 102.823 273.221 100.126V100.017H278.024V105.156C278.024 107.998 277.16 110.44 275.43 112.481C273.701 114.449 271.587 115.433 269.09 115.433H242.766C240.204 115.433 238.059 114.449 236.329 112.481C234.664 110.44 233.831 107.998 233.831 105.156V70.3869C233.831 67.4713 234.664 65.0294 236.329 63.0614C238.059 61.0205 240.204 60 242.766 60H269.09Z" fill="white"/>
<path d="M180.882 89.958H215.468V75.307C215.468 72.61 215.019 70.314 214.123 68.4188C213.226 66.5237 211.593 65.5761 209.223 65.5761L186.934 65.6855C184.565 65.6855 182.963 66.633 182.131 68.5282C181.298 70.3504 180.882 72.61 180.882 75.307V89.958ZM211.336 60C213.834 60 215.948 61.0205 217.677 63.0614C219.47 65.0294 220.367 67.4348 220.367 70.2776V115.433H215.468V95.5341H180.882V115.433H175.982V70.2776C175.982 68.8926 176.206 67.5806 176.655 66.3415C177.167 65.0294 177.808 63.9361 178.576 63.0614C179.409 62.1138 180.369 61.3849 181.458 60.8747C182.547 60.2916 183.732 60 185.013 60H211.336Z" fill="white"/>
<path d="M122.854 65.4668V84.9285H148.889C151.323 84.9285 153.341 84.0174 154.942 82.1951C156.543 80.3729 157.344 78.0768 157.344 75.307C157.344 72.61 156.543 70.314 154.942 68.4188C153.341 66.4508 151.323 65.4668 148.889 65.4668H122.854ZM148.889 60C150.747 60 152.476 60.4009 154.077 61.2027C155.742 62.0045 157.151 63.0978 158.304 64.4828C159.521 65.8677 160.482 67.5077 161.186 69.4029C161.891 71.2251 162.243 73.1932 162.243 75.307C162.243 77.4208 161.891 79.3889 161.186 81.2111C160.482 83.0334 159.521 84.637 158.304 86.0219C157.151 87.4068 155.742 88.5002 154.077 89.302C152.476 90.1038 150.747 90.5047 148.889 90.5047H122.854V115.433H117.954V60H148.889Z" fill="white"/>
<path d="M73.45 65.4668C71.0802 65.4668 69.0307 66.4508 67.3014 68.4188C65.6362 70.314 64.8036 72.61 64.8036 75.307C64.8036 78.0768 65.6362 80.3729 67.3014 82.1951C69.0307 84.0174 71.0802 84.9285 73.45 84.9285H90.935C92.7283 84.9285 94.4256 85.3294 96.0268 86.1312C97.692 86.933 99.1331 88.0264 100.35 89.4113C101.631 90.7962 102.624 92.4363 103.328 94.3314C104.033 96.1537 104.385 98.0853 104.385 100.126C104.385 102.24 104.033 104.245 103.328 106.14C102.624 107.962 101.631 109.566 100.35 110.95C99.1331 112.335 97.692 113.429 96.0268 114.23C94.4256 115.032 92.7283 115.433 90.935 115.433H60V109.966H90.935C93.3047 109.966 95.3222 109.019 96.9875 107.124C98.6527 105.156 99.4853 102.823 99.4853 100.126C99.4853 97.3564 98.6527 95.0603 96.9875 93.238C95.3222 91.4158 93.3047 90.5047 90.935 90.5047H73.45C71.5926 90.5047 69.8313 90.1038 68.1661 89.302C66.5649 88.5002 65.1558 87.4068 63.9389 86.0219C62.722 84.637 61.7613 83.0334 61.0568 81.2111C60.3523 79.3889 60 77.4208 60 75.307C60 73.1932 60.3523 71.2251 61.0568 69.4029C61.7613 67.5077 62.722 65.8677 63.9389 64.4828C65.1558 63.0978 66.5649 62.0045 68.1661 61.2027C69.8313 60.4009 71.5926 60 73.45 60H104.385V65.4668H73.45Z" fill="white"/>
<g filter="url(#filter1_f_305_8)">
<path d="M665.55 109.857C667.984 109.857 669.905 109.347 671.314 108.326C672.787 107.233 673.556 105.338 673.62 102.641L674.1 71.5896C674.1 70.2776 673.876 69.2206 673.428 68.4188C673.043 67.6171 672.467 66.9975 671.698 66.5601C670.93 66.1228 670.001 65.8312 668.912 65.6855C667.888 65.5397 666.767 65.4668 665.55 65.4668H647.873C645.439 65.4668 643.517 65.8312 642.108 66.5601C640.763 67.2162 640.059 68.8926 639.995 71.5896L639.611 103.625C639.611 104.937 639.803 106.03 640.187 106.905C640.571 107.707 641.116 108.326 641.82 108.764C642.589 109.201 643.485 109.493 644.51 109.638C645.535 109.784 646.656 109.857 647.873 109.857H665.55ZM670.065 60C671.282 60 672.435 60.2916 673.524 60.8747C674.613 61.3849 675.541 62.1138 676.31 63.0614C677.142 63.9361 677.783 65.0294 678.231 66.3415C678.744 67.5806 679 68.8926 679 70.2776V105.156C679 106.613 678.744 107.962 678.231 109.201C677.783 110.44 677.142 111.534 676.31 112.481C675.541 113.356 674.613 114.085 673.524 114.668C672.435 115.178 671.282 115.433 670.065 115.433H643.646C642.429 115.433 641.276 115.178 640.187 114.668C639.098 114.085 638.137 113.356 637.305 112.481C636.536 111.534 635.896 110.44 635.383 109.201C634.935 107.962 634.711 106.613 634.711 105.156V70.2776C634.711 68.8926 634.935 67.5806 635.383 66.3415C635.896 65.0294 636.536 63.9361 637.305 63.0614C638.137 62.1138 639.098 61.3849 640.187 60.8747C641.276 60.2916 642.429 60 643.646 60H670.065Z" fill="#DE7EFF" fill-opacity="0.86"/>
<path d="M607.138 109.857C609.572 109.857 611.493 109.347 612.902 108.326C614.375 107.233 615.144 105.338 615.208 102.641L615.688 71.5896C615.688 70.2776 615.464 69.2206 615.016 68.4188C614.631 67.6171 614.055 66.9975 613.286 66.5601C612.518 66.1228 611.589 65.8312 610.5 65.6855C609.476 65.5397 608.355 65.4668 607.138 65.4668H589.461C587.027 65.4668 585.105 65.8312 583.696 66.5601C582.351 67.2162 581.647 68.8926 581.583 71.5896L581.199 103.625C581.199 104.937 581.391 106.03 581.775 106.905C582.159 107.707 582.704 108.326 583.408 108.764C584.177 109.201 585.073 109.493 586.098 109.638C587.123 109.784 588.244 109.857 589.461 109.857H607.138ZM611.653 60C612.87 60 614.023 60.2916 615.112 60.8747C616.201 61.3849 617.129 62.1138 617.898 63.0614C618.73 63.9361 619.371 65.0294 619.819 66.3415C620.332 67.5806 620.588 68.8926 620.588 70.2776V105.156C620.588 106.613 620.332 107.962 619.819 109.201C619.371 110.44 618.73 111.534 617.898 112.481C617.129 113.356 616.201 114.085 615.112 114.668C614.023 115.178 612.87 115.433 611.653 115.433H585.233C584.017 115.433 582.864 115.178 581.775 114.668C580.686 114.085 579.725 113.356 578.893 112.481C578.124 111.534 577.484 110.44 576.971 109.201C576.523 107.962 576.299 106.613 576.299 105.156V70.2776C576.299 68.8926 576.523 67.5806 576.971 66.3415C577.484 65.0294 578.124 63.9361 578.893 63.0614C579.725 62.1138 580.686 61.3849 581.775 60.8747C582.864 60.2916 584.017 60 585.233 60H611.653Z" fill="#DE7EFF" fill-opacity="0.86"/>
<path d="M545.165 115.433H540.265V65.4668H522.78V60H562.746V65.4668H545.165V115.433Z" fill="#DE7EFF" fill-opacity="0.86"/>
<path d="M495.009 115.433H490.109V65.4668H472.624V60H512.59V65.4668H495.009V115.433Z" fill="#DE7EFF" fill-opacity="0.86"/>
<path d="M422.749 89.958H457.335V75.307C457.335 72.61 456.886 70.314 455.99 68.4188C455.093 66.5237 453.46 65.5761 451.09 65.5761L428.801 65.6855C426.432 65.6855 424.831 66.633 423.998 68.5282C423.165 70.3504 422.749 72.61 422.749 75.307V89.958ZM453.204 60C455.701 60 457.815 61.0205 459.544 63.0614C461.338 65.0294 462.234 67.4348 462.234 70.2776V115.433H457.335V95.5341H422.749V115.433H417.849V70.2776C417.849 68.8926 418.074 67.5806 418.522 66.3415C419.034 65.0294 419.675 63.9361 420.443 63.0614C421.276 62.1138 422.237 61.3849 423.325 60.8747C424.414 60.2916 425.599 60 426.88 60H453.204Z" fill="#DE7EFF" fill-opacity="0.86"/>
<path d="M387.004 115.433H382.104V65.4668H364.619V60H404.585V65.4668H387.004V115.433Z" fill="#DE7EFF" fill-opacity="0.86"/>
<path d="M296.676 84.9285H312.816V90.5047H296.676V109.966H331.935V115.433H291.873V60H331.935V65.4668H296.676V84.9285Z" fill="#DE7EFF" fill-opacity="0.86"/>
<path d="M269.09 60C271.587 60 273.701 61.0205 275.43 63.0614C277.16 65.0294 278.024 67.4713 278.024 70.3869V75.5257H273.221V75.307C273.221 72.61 272.708 70.314 271.684 68.4188C270.659 66.5237 268.962 65.5761 266.592 65.5761L245.168 65.3574C242.734 65.3574 241.037 66.3415 240.076 68.3095C239.115 70.2776 238.635 72.61 238.635 75.307V100.126C238.635 101.438 238.731 102.714 238.923 103.953C239.115 105.119 239.436 106.176 239.884 107.124C240.396 107.998 241.037 108.727 241.805 109.31C242.638 109.821 243.663 110.076 244.88 110.076L266.592 110.185C268.962 110.185 270.659 109.201 271.684 107.233C272.708 105.192 273.221 102.823 273.221 100.126V100.017H278.024V105.156C278.024 107.998 277.16 110.44 275.43 112.481C273.701 114.449 271.587 115.433 269.09 115.433H242.766C240.204 115.433 238.059 114.449 236.329 112.481C234.664 110.44 233.831 107.998 233.831 105.156V70.3869C233.831 67.4713 234.664 65.0294 236.329 63.0614C238.059 61.0205 240.204 60 242.766 60H269.09Z" fill="#DE7EFF" fill-opacity="0.86"/>
<path d="M180.882 89.958H215.468V75.307C215.468 72.61 215.019 70.314 214.123 68.4188C213.226 66.5237 211.593 65.5761 209.223 65.5761L186.934 65.6855C184.565 65.6855 182.963 66.633 182.131 68.5282C181.298 70.3504 180.882 72.61 180.882 75.307V89.958ZM211.336 60C213.834 60 215.948 61.0205 217.677 63.0614C219.47 65.0294 220.367 67.4348 220.367 70.2776V115.433H215.468V95.5341H180.882V115.433H175.982V70.2776C175.982 68.8926 176.206 67.5806 176.655 66.3415C177.167 65.0294 177.808 63.9361 178.576 63.0614C179.409 62.1138 180.369 61.3849 181.458 60.8747C182.547 60.2916 183.732 60 185.013 60H211.336Z" fill="#DE7EFF" fill-opacity="0.86"/>
<path d="M122.854 65.4668V84.9285H148.889C151.323 84.9285 153.341 84.0174 154.942 82.1951C156.543 80.3729 157.344 78.0768 157.344 75.307C157.344 72.61 156.543 70.314 154.942 68.4188C153.341 66.4508 151.323 65.4668 148.889 65.4668H122.854ZM148.889 60C150.747 60 152.476 60.4009 154.077 61.2027C155.742 62.0045 157.151 63.0978 158.304 64.4828C159.521 65.8677 160.482 67.5077 161.186 69.4029C161.891 71.2251 162.243 73.1932 162.243 75.307C162.243 77.4208 161.891 79.3889 161.186 81.2111C160.482 83.0334 159.521 84.637 158.304 86.0219C157.151 87.4068 155.742 88.5002 154.077 89.302C152.476 90.1038 150.747 90.5047 148.889 90.5047H122.854V115.433H117.954V60H148.889Z" fill="#DE7EFF" fill-opacity="0.86"/>
<path d="M73.45 65.4668C71.0802 65.4668 69.0307 66.4508 67.3014 68.4188C65.6362 70.314 64.8036 72.61 64.8036 75.307C64.8036 78.0768 65.6362 80.3729 67.3014 82.1951C69.0307 84.0174 71.0802 84.9285 73.45 84.9285H90.935C92.7283 84.9285 94.4256 85.3294 96.0268 86.1312C97.692 86.933 99.1331 88.0264 100.35 89.4113C101.631 90.7962 102.624 92.4363 103.328 94.3314C104.033 96.1537 104.385 98.0853 104.385 100.126C104.385 102.24 104.033 104.245 103.328 106.14C102.624 107.962 101.631 109.566 100.35 110.95C99.1331 112.335 97.692 113.429 96.0268 114.23C94.4256 115.032 92.7283 115.433 90.935 115.433H60V109.966H90.935C93.3047 109.966 95.3222 109.019 96.9875 107.124C98.6527 105.156 99.4853 102.823 99.4853 100.126C99.4853 97.3564 98.6527 95.0603 96.9875 93.238C95.3222 91.4158 93.3047 90.5047 90.935 90.5047H73.45C71.5926 90.5047 69.8313 90.1038 68.1661 89.302C66.5649 88.5002 65.1558 87.4068 63.9389 86.0219C62.722 84.637 61.7613 83.0334 61.0568 81.2111C60.3523 79.3889 60 77.4208 60 75.307C60 73.1932 60.3523 71.2251 61.0568 69.4029C61.7613 67.5077 62.722 65.8677 63.9389 64.4828C65.1558 63.0978 66.5649 62.0045 68.1661 61.2027C69.8313 60.4009 71.5926 60 73.45 60H104.385V65.4668H73.45Z" fill="#DE7EFF" fill-opacity="0.86"/>
</g>
<g filter="url(#filter2_f_305_8)">
<path d="M665.55 109.857C667.984 109.857 669.905 109.347 671.314 108.326C672.787 107.233 673.556 105.338 673.62 102.641L674.1 71.5896C674.1 70.2776 673.876 69.2206 673.428 68.4188C673.043 67.6171 672.467 66.9975 671.698 66.5601C670.93 66.1228 670.001 65.8312 668.912 65.6855C667.888 65.5397 666.767 65.4668 665.55 65.4668H647.873C645.439 65.4668 643.517 65.8312 642.108 66.5601C640.763 67.2162 640.059 68.8926 639.995 71.5896L639.611 103.625C639.611 104.937 639.803 106.03 640.187 106.905C640.571 107.707 641.116 108.326 641.82 108.764C642.589 109.201 643.485 109.493 644.51 109.638C645.535 109.784 646.656 109.857 647.873 109.857H665.55ZM670.065 60C671.282 60 672.435 60.2916 673.524 60.8747C674.613 61.3849 675.541 62.1138 676.31 63.0614C677.142 63.9361 677.783 65.0294 678.231 66.3415C678.744 67.5806 679 68.8926 679 70.2776V105.156C679 106.613 678.744 107.962 678.231 109.201C677.783 110.44 677.142 111.534 676.31 112.481C675.541 113.356 674.613 114.085 673.524 114.668C672.435 115.178 671.282 115.433 670.065 115.433H643.646C642.429 115.433 641.276 115.178 640.187 114.668C639.098 114.085 638.137 113.356 637.305 112.481C636.536 111.534 635.896 110.44 635.383 109.201C634.935 107.962 634.711 106.613 634.711 105.156V70.2776C634.711 68.8926 634.935 67.5806 635.383 66.3415C635.896 65.0294 636.536 63.9361 637.305 63.0614C638.137 62.1138 639.098 61.3849 640.187 60.8747C641.276 60.2916 642.429 60 643.646 60H670.065Z" fill="#DE7EFF" fill-opacity="0.86"/>
<path d="M607.138 109.857C609.572 109.857 611.493 109.347 612.902 108.326C614.375 107.233 615.144 105.338 615.208 102.641L615.688 71.5896C615.688 70.2776 615.464 69.2206 615.016 68.4188C614.631 67.6171 614.055 66.9975 613.286 66.5601C612.518 66.1228 611.589 65.8312 610.5 65.6855C609.476 65.5397 608.355 65.4668 607.138 65.4668H589.461C587.027 65.4668 585.105 65.8312 583.696 66.5601C582.351 67.2162 581.647 68.8926 581.583 71.5896L581.199 103.625C581.199 104.937 581.391 106.03 581.775 106.905C582.159 107.707 582.704 108.326 583.408 108.764C584.177 109.201 585.073 109.493 586.098 109.638C587.123 109.784 588.244 109.857 589.461 109.857H607.138ZM611.653 60C612.87 60 614.023 60.2916 615.112 60.8747C616.201 61.3849 617.129 62.1138 617.898 63.0614C618.73 63.9361 619.371 65.0294 619.819 66.3415C620.332 67.5806 620.588 68.8926 620.588 70.2776V105.156C620.588 106.613 620.332 107.962 619.819 109.201C619.371 110.44 618.73 111.534 617.898 112.481C617.129 113.356 616.201 114.085 615.112 114.668C614.023 115.178 612.87 115.433 611.653 115.433H585.233C584.017 115.433 582.864 115.178 581.775 114.668C580.686 114.085 579.725 113.356 578.893 112.481C578.124 111.534 577.484 110.44 576.971 109.201C576.523 107.962 576.299 106.613 576.299 105.156V70.2776C576.299 68.8926 576.523 67.5806 576.971 66.3415C577.484 65.0294 578.124 63.9361 578.893 63.0614C579.725 62.1138 580.686 61.3849 581.775 60.8747C582.864 60.2916 584.017 60 585.233 60H611.653Z" fill="#DE7EFF" fill-opacity="0.86"/>
<path d="M545.165 115.433H540.265V65.4668H522.78V60H562.746V65.4668H545.165V115.433Z" fill="#DE7EFF" fill-opacity="0.86"/>
<path d="M495.009 115.433H490.109V65.4668H472.624V60H512.59V65.4668H495.009V115.433Z" fill="#DE7EFF" fill-opacity="0.86"/>
<path d="M422.749 89.958H457.335V75.307C457.335 72.61 456.886 70.314 455.99 68.4188C455.093 66.5237 453.46 65.5761 451.09 65.5761L428.801 65.6855C426.432 65.6855 424.831 66.633 423.998 68.5282C423.165 70.3504 422.749 72.61 422.749 75.307V89.958ZM453.204 60C455.701 60 457.815 61.0205 459.544 63.0614C461.338 65.0294 462.234 67.4348 462.234 70.2776V115.433H457.335V95.5341H422.749V115.433H417.849V70.2776C417.849 68.8926 418.074 67.5806 418.522 66.3415C419.034 65.0294 419.675 63.9361 420.443 63.0614C421.276 62.1138 422.237 61.3849 423.325 60.8747C424.414 60.2916 425.599 60 426.88 60H453.204Z" fill="#DE7EFF" fill-opacity="0.86"/>
<path d="M387.004 115.433H382.104V65.4668H364.619V60H404.585V65.4668H387.004V115.433Z" fill="#DE7EFF" fill-opacity="0.86"/>
<path d="M296.676 84.9285H312.816V90.5047H296.676V109.966H331.935V115.433H291.873V60H331.935V65.4668H296.676V84.9285Z" fill="#DE7EFF" fill-opacity="0.86"/>
<path d="M269.09 60C271.587 60 273.701 61.0205 275.43 63.0614C277.16 65.0294 278.024 67.4713 278.024 70.3869V75.5257H273.221V75.307C273.221 72.61 272.708 70.314 271.684 68.4188C270.659 66.5237 268.962 65.5761 266.592 65.5761L245.168 65.3574C242.734 65.3574 241.037 66.3415 240.076 68.3095C239.115 70.2776 238.635 72.61 238.635 75.307V100.126C238.635 101.438 238.731 102.714 238.923 103.953C239.115 105.119 239.436 106.176 239.884 107.124C240.396 107.998 241.037 108.727 241.805 109.31C242.638 109.821 243.663 110.076 244.88 110.076L266.592 110.185C268.962 110.185 270.659 109.201 271.684 107.233C272.708 105.192 273.221 102.823 273.221 100.126V100.017H278.024V105.156C278.024 107.998 277.16 110.44 275.43 112.481C273.701 114.449 271.587 115.433 269.09 115.433H242.766C240.204 115.433 238.059 114.449 236.329 112.481C234.664 110.44 233.831 107.998 233.831 105.156V70.3869C233.831 67.4713 234.664 65.0294 236.329 63.0614C238.059 61.0205 240.204 60 242.766 60H269.09Z" fill="#DE7EFF" fill-opacity="0.86"/>
<path d="M180.882 89.958H215.468V75.307C215.468 72.61 215.019 70.314 214.123 68.4188C213.226 66.5237 211.593 65.5761 209.223 65.5761L186.934 65.6855C184.565 65.6855 182.963 66.633 182.131 68.5282C181.298 70.3504 180.882 72.61 180.882 75.307V89.958ZM211.336 60C213.834 60 215.948 61.0205 217.677 63.0614C219.47 65.0294 220.367 67.4348 220.367 70.2776V115.433H215.468V95.5341H180.882V115.433H175.982V70.2776C175.982 68.8926 176.206 67.5806 176.655 66.3415C177.167 65.0294 177.808 63.9361 178.576 63.0614C179.409 62.1138 180.369 61.3849 181.458 60.8747C182.547 60.2916 183.732 60 185.013 60H211.336Z" fill="#DE7EFF" fill-opacity="0.86"/>
<path d="M122.854 65.4668V84.9285H148.889C151.323 84.9285 153.341 84.0174 154.942 82.1951C156.543 80.3729 157.344 78.0768 157.344 75.307C157.344 72.61 156.543 70.314 154.942 68.4188C153.341 66.4508 151.323 65.4668 148.889 65.4668H122.854ZM148.889 60C150.747 60 152.476 60.4009 154.077 61.2027C155.742 62.0045 157.151 63.0978 158.304 64.4828C159.521 65.8677 160.482 67.5077 161.186 69.4029C161.891 71.2251 162.243 73.1932 162.243 75.307C162.243 77.4208 161.891 79.3889 161.186 81.2111C160.482 83.0334 159.521 84.637 158.304 86.0219C157.151 87.4068 155.742 88.5002 154.077 89.302C152.476 90.1038 150.747 90.5047 148.889 90.5047H122.854V115.433H117.954V60H148.889Z" fill="#DE7EFF" fill-opacity="0.86"/>
<path d="M73.45 65.4668C71.0802 65.4668 69.0307 66.4508 67.3014 68.4188C65.6362 70.314 64.8036 72.61 64.8036 75.307C64.8036 78.0768 65.6362 80.3729 67.3014 82.1951C69.0307 84.0174 71.0802 84.9285 73.45 84.9285H90.935C92.7283 84.9285 94.4256 85.3294 96.0268 86.1312C97.692 86.933 99.1331 88.0264 100.35 89.4113C101.631 90.7962 102.624 92.4363 103.328 94.3314C104.033 96.1537 104.385 98.0853 104.385 100.126C104.385 102.24 104.033 104.245 103.328 106.14C102.624 107.962 101.631 109.566 100.35 110.95C99.1331 112.335 97.692 113.429 96.0268 114.23C94.4256 115.032 92.7283 115.433 90.935 115.433H60V109.966H90.935C93.3047 109.966 95.3222 109.019 96.9875 107.124C98.6527 105.156 99.4853 102.823 99.4853 100.126C99.4853 97.3564 98.6527 95.0603 96.9875 93.238C95.3222 91.4158 93.3047 90.5047 90.935 90.5047H73.45C71.5926 90.5047 69.8313 90.1038 68.1661 89.302C66.5649 88.5002 65.1558 87.4068 63.9389 86.0219C62.722 84.637 61.7613 83.0334 61.0568 81.2111C60.3523 79.3889 60 77.4208 60 75.307C60 73.1932 60.3523 71.2251 61.0568 69.4029C61.7613 67.5077 62.722 65.8677 63.9389 64.4828C65.1558 63.0978 66.5649 62.0045 68.1661 61.2027C69.8313 60.4009 71.5926 60 73.45 60H104.385V65.4668H73.45Z" fill="#DE7EFF" fill-opacity="0.86"/>
</g>
<g filter="url(#filter3_f_305_8)">
<path d="M665.55 109.857C667.984 109.857 669.905 109.347 671.314 108.326C672.787 107.233 673.556 105.338 673.62 102.641L674.1 71.5896C674.1 70.2776 673.876 69.2206 673.428 68.4188C673.043 67.6171 672.467 66.9975 671.698 66.5601C670.93 66.1228 670.001 65.8312 668.912 65.6855C667.888 65.5397 666.767 65.4668 665.55 65.4668H647.873C645.439 65.4668 643.517 65.8312 642.108 66.5601C640.763 67.2162 640.059 68.8926 639.995 71.5896L639.611 103.625C639.611 104.937 639.803 106.03 640.187 106.905C640.571 107.707 641.116 108.326 641.82 108.764C642.589 109.201 643.485 109.493 644.51 109.638C645.535 109.784 646.656 109.857 647.873 109.857H665.55ZM670.065 60C671.282 60 672.435 60.2916 673.524 60.8747C674.613 61.3849 675.541 62.1138 676.31 63.0614C677.142 63.9361 677.783 65.0294 678.231 66.3415C678.744 67.5806 679 68.8926 679 70.2776V105.156C679 106.613 678.744 107.962 678.231 109.201C677.783 110.44 677.142 111.534 676.31 112.481C675.541 113.356 674.613 114.085 673.524 114.668C672.435 115.178 671.282 115.433 670.065 115.433H643.646C642.429 115.433 641.276 115.178 640.187 114.668C639.098 114.085 638.137 113.356 637.305 112.481C636.536 111.534 635.896 110.44 635.383 109.201C634.935 107.962 634.711 106.613 634.711 105.156V70.2776C634.711 68.8926 634.935 67.5806 635.383 66.3415C635.896 65.0294 636.536 63.9361 637.305 63.0614C638.137 62.1138 639.098 61.3849 640.187 60.8747C641.276 60.2916 642.429 60 643.646 60H670.065Z" fill="#DE7EFF" fill-opacity="0.86"/>
<path d="M607.138 109.857C609.572 109.857 611.493 109.347 612.902 108.326C614.375 107.233 615.144 105.338 615.208 102.641L615.688 71.5896C615.688 70.2776 615.464 69.2206 615.016 68.4188C614.631 67.6171 614.055 66.9975 613.286 66.5601C612.518 66.1228 611.589 65.8312 610.5 65.6855C609.476 65.5397 608.355 65.4668 607.138 65.4668H589.461C587.027 65.4668 585.105 65.8312 583.696 66.5601C582.351 67.2162 581.647 68.8926 581.583 71.5896L581.199 103.625C581.199 104.937 581.391 106.03 581.775 106.905C582.159 107.707 582.704 108.326 583.408 108.764C584.177 109.201 585.073 109.493 586.098 109.638C587.123 109.784 588.244 109.857 589.461 109.857H607.138ZM611.653 60C612.87 60 614.023 60.2916 615.112 60.8747C616.201 61.3849 617.129 62.1138 617.898 63.0614C618.73 63.9361 619.371 65.0294 619.819 66.3415C620.332 67.5806 620.588 68.8926 620.588 70.2776V105.156C620.588 106.613 620.332 107.962 619.819 109.201C619.371 110.44 618.73 111.534 617.898 112.481C617.129 113.356 616.201 114.085 615.112 114.668C614.023 115.178 612.87 115.433 611.653 115.433H585.233C584.017 115.433 582.864 115.178 581.775 114.668C580.686 114.085 579.725 113.356 578.893 112.481C578.124 111.534 577.484 110.44 576.971 109.201C576.523 107.962 576.299 106.613 576.299 105.156V70.2776C576.299 68.8926 576.523 67.5806 576.971 66.3415C577.484 65.0294 578.124 63.9361 578.893 63.0614C579.725 62.1138 580.686 61.3849 581.775 60.8747C582.864 60.2916 584.017 60 585.233 60H611.653Z" fill="#DE7EFF" fill-opacity="0.86"/>
<path d="M545.165 115.433H540.265V65.4668H522.78V60H562.746V65.4668H545.165V115.433Z" fill="#DE7EFF" fill-opacity="0.86"/>
<path d="M495.009 115.433H490.109V65.4668H472.624V60H512.59V65.4668H495.009V115.433Z" fill="#DE7EFF" fill-opacity="0.86"/>
<path d="M422.749 89.958H457.335V75.307C457.335 72.61 456.886 70.314 455.99 68.4188C455.093 66.5237 453.46 65.5761 451.09 65.5761L428.801 65.6855C426.432 65.6855 424.831 66.633 423.998 68.5282C423.165 70.3504 422.749 72.61 422.749 75.307V89.958ZM453.204 60C455.701 60 457.815 61.0205 459.544 63.0614C461.338 65.0294 462.234 67.4348 462.234 70.2776V115.433H457.335V95.5341H422.749V115.433H417.849V70.2776C417.849 68.8926 418.074 67.5806 418.522 66.3415C419.034 65.0294 419.675 63.9361 420.443 63.0614C421.276 62.1138 422.237 61.3849 423.325 60.8747C424.414 60.2916 425.599 60 426.88 60H453.204Z" fill="#DE7EFF" fill-opacity="0.86"/>
<path d="M387.004 115.433H382.104V65.4668H364.619V60H404.585V65.4668H387.004V115.433Z" fill="#DE7EFF" fill-opacity="0.86"/>
<path d="M296.676 84.9285H312.816V90.5047H296.676V109.966H331.935V115.433H291.873V60H331.935V65.4668H296.676V84.9285Z" fill="#DE7EFF" fill-opacity="0.86"/>
<path d="M269.09 60C271.587 60 273.701 61.0205 275.43 63.0614C277.16 65.0294 278.024 67.4713 278.024 70.3869V75.5257H273.221V75.307C273.221 72.61 272.708 70.314 271.684 68.4188C270.659 66.5237 268.962 65.5761 266.592 65.5761L245.168 65.3574C242.734 65.3574 241.037 66.3415 240.076 68.3095C239.115 70.2776 238.635 72.61 238.635 75.307V100.126C238.635 101.438 238.731 102.714 238.923 103.953C239.115 105.119 239.436 106.176 239.884 107.124C240.396 107.998 241.037 108.727 241.805 109.31C242.638 109.821 243.663 110.076 244.88 110.076L266.592 110.185C268.962 110.185 270.659 109.201 271.684 107.233C272.708 105.192 273.221 102.823 273.221 100.126V100.017H278.024V105.156C278.024 107.998 277.16 110.44 275.43 112.481C273.701 114.449 271.587 115.433 269.09 115.433H242.766C240.204 115.433 238.059 114.449 236.329 112.481C234.664 110.44 233.831 107.998 233.831 105.156V70.3869C233.831 67.4713 234.664 65.0294 236.329 63.0614C238.059 61.0205 240.204 60 242.766 60H269.09Z" fill="#DE7EFF" fill-opacity="0.86"/>
<path d="M180.882 89.958H215.468V75.307C215.468 72.61 215.019 70.314 214.123 68.4188C213.226 66.5237 211.593 65.5761 209.223 65.5761L186.934 65.6855C184.565 65.6855 182.963 66.633 182.131 68.5282C181.298 70.3504 180.882 72.61 180.882 75.307V89.958ZM211.336 60C213.834 60 215.948 61.0205 217.677 63.0614C219.47 65.0294 220.367 67.4348 220.367 70.2776V115.433H215.468V95.5341H180.882V115.433H175.982V70.2776C175.982 68.8926 176.206 67.5806 176.655 66.3415C177.167 65.0294 177.808 63.9361 178.576 63.0614C179.409 62.1138 180.369 61.3849 181.458 60.8747C182.547 60.2916 183.732 60 185.013 60H211.336Z" fill="#DE7EFF" fill-opacity="0.86"/>
<path d="M122.854 65.4668V84.9285H148.889C151.323 84.9285 153.341 84.0174 154.942 82.1951C156.543 80.3729 157.344 78.0768 157.344 75.307C157.344 72.61 156.543 70.314 154.942 68.4188C153.341 66.4508 151.323 65.4668 148.889 65.4668H122.854ZM148.889 60C150.747 60 152.476 60.4009 154.077 61.2027C155.742 62.0045 157.151 63.0978 158.304 64.4828C159.521 65.8677 160.482 67.5077 161.186 69.4029C161.891 71.2251 162.243 73.1932 162.243 75.307C162.243 77.4208 161.891 79.3889 161.186 81.2111C160.482 83.0334 159.521 84.637 158.304 86.0219C157.151 87.4068 155.742 88.5002 154.077 89.302C152.476 90.1038 150.747 90.5047 148.889 90.5047H122.854V115.433H117.954V60H148.889Z" fill="#DE7EFF" fill-opacity="0.86"/>
<path d="M73.45 65.4668C71.0802 65.4668 69.0307 66.4508 67.3014 68.4188C65.6362 70.314 64.8036 72.61 64.8036 75.307C64.8036 78.0768 65.6362 80.3729 67.3014 82.1951C69.0307 84.0174 71.0802 84.9285 73.45 84.9285H90.935C92.7283 84.9285 94.4256 85.3294 96.0268 86.1312C97.692 86.933 99.1331 88.0264 100.35 89.4113C101.631 90.7962 102.624 92.4363 103.328 94.3314C104.033 96.1537 104.385 98.0853 104.385 100.126C104.385 102.24 104.033 104.245 103.328 106.14C102.624 107.962 101.631 109.566 100.35 110.95C99.1331 112.335 97.692 113.429 96.0268 114.23C94.4256 115.032 92.7283 115.433 90.935 115.433H60V109.966H90.935C93.3047 109.966 95.3222 109.019 96.9875 107.124C98.6527 105.156 99.4853 102.823 99.4853 100.126C99.4853 97.3564 98.6527 95.0603 96.9875 93.238C95.3222 91.4158 93.3047 90.5047 90.935 90.5047H73.45C71.5926 90.5047 69.8313 90.1038 68.1661 89.302C66.5649 88.5002 65.1558 87.4068 63.9389 86.0219C62.722 84.637 61.7613 83.0334 61.0568 81.2111C60.3523 79.3889 60 77.4208 60 75.307C60 73.1932 60.3523 71.2251 61.0568 69.4029C61.7613 67.5077 62.722 65.8677 63.9389 64.4828C65.1558 63.0978 66.5649 62.0045 68.1661 61.2027C69.8313 60.4009 71.5926 60 73.45 60H104.385V65.4668H73.45Z" fill="#DE7EFF" fill-opacity="0.86"/>
</g>
<path d="M665.55 109.857C667.984 109.857 669.905 109.347 671.314 108.326C672.787 107.233 673.556 105.338 673.62 102.641L674.1 71.5896C674.1 70.2776 673.876 69.2206 673.428 68.4188C673.043 67.6171 672.467 66.9975 671.698 66.5601C670.93 66.1228 670.001 65.8312 668.912 65.6855C667.888 65.5397 666.767 65.4668 665.55 65.4668H647.873C645.439 65.4668 643.517 65.8312 642.108 66.5601C640.763 67.2162 640.059 68.8926 639.995 71.5896L639.611 103.625C639.611 104.937 639.803 106.03 640.187 106.905C640.571 107.707 641.116 108.326 641.82 108.764C642.589 109.201 643.485 109.493 644.51 109.638C645.535 109.784 646.656 109.857 647.873 109.857H665.55ZM670.065 60C671.282 60 672.435 60.2916 673.524 60.8747C674.613 61.3849 675.541 62.1138 676.31 63.0614C677.142 63.9361 677.783 65.0294 678.231 66.3415C678.744 67.5806 679 68.8926 679 70.2776V105.156C679 106.613 678.744 107.962 678.231 109.201C677.783 110.44 677.142 111.534 676.31 112.481C675.541 113.356 674.613 114.085 673.524 114.668C672.435 115.178 671.282 115.433 670.065 115.433H643.646C642.429 115.433 641.276 115.178 640.187 114.668C639.098 114.085 638.137 113.356 637.305 112.481C636.536 111.534 635.896 110.44 635.383 109.201C634.935 107.962 634.711 106.613 634.711 105.156V70.2776C634.711 68.8926 634.935 67.5806 635.383 66.3415C635.896 65.0294 636.536 63.9361 637.305 63.0614C638.137 62.1138 639.098 61.3849 640.187 60.8747C641.276 60.2916 642.429 60 643.646 60H670.065Z" fill="#DE7EFF" fill-opacity="0.86"/>
<path d="M607.138 109.857C609.572 109.857 611.493 109.347 612.902 108.326C614.375 107.233 615.144 105.338 615.208 102.641L615.688 71.5896C615.688 70.2776 615.464 69.2206 615.016 68.4188C614.631 67.6171 614.055 66.9975 613.286 66.5601C612.518 66.1228 611.589 65.8312 610.5 65.6855C609.476 65.5397 608.355 65.4668 607.138 65.4668H589.461C587.027 65.4668 585.105 65.8312 583.696 66.5601C582.351 67.2162 581.647 68.8926 581.583 71.5896L581.199 103.625C581.199 104.937 581.391 106.03 581.775 106.905C582.159 107.707 582.704 108.326 583.408 108.764C584.177 109.201 585.073 109.493 586.098 109.638C587.123 109.784 588.244 109.857 589.461 109.857H607.138ZM611.653 60C612.87 60 614.023 60.2916 615.112 60.8747C616.201 61.3849 617.129 62.1138 617.898 63.0614C618.73 63.9361 619.371 65.0294 619.819 66.3415C620.332 67.5806 620.588 68.8926 620.588 70.2776V105.156C620.588 106.613 620.332 107.962 619.819 109.201C619.371 110.44 618.73 111.534 617.898 112.481C617.129 113.356 616.201 114.085 615.112 114.668C614.023 115.178 612.87 115.433 611.653 115.433H585.233C584.017 115.433 582.864 115.178 581.775 114.668C580.686 114.085 579.725 113.356 578.893 112.481C578.124 111.534 577.484 110.44 576.971 109.201C576.523 107.962 576.299 106.613 576.299 105.156V70.2776C576.299 68.8926 576.523 67.5806 576.971 66.3415C577.484 65.0294 578.124 63.9361 578.893 63.0614C579.725 62.1138 580.686 61.3849 581.775 60.8747C582.864 60.2916 584.017 60 585.233 60H611.653Z" fill="#DE7EFF" fill-opacity="0.86"/>
<path d="M545.165 115.433H540.265V65.4668H522.78V60H562.746V65.4668H545.165V115.433Z" fill="#DE7EFF" fill-opacity="0.86"/>
<path d="M495.009 115.433H490.109V65.4668H472.624V60H512.59V65.4668H495.009V115.433Z" fill="#DE7EFF" fill-opacity="0.86"/>
<path d="M422.749 89.958H457.335V75.307C457.335 72.61 456.886 70.314 455.99 68.4188C455.093 66.5237 453.46 65.5761 451.09 65.5761L428.801 65.6855C426.432 65.6855 424.831 66.633 423.998 68.5282C423.165 70.3504 422.749 72.61 422.749 75.307V89.958ZM453.204 60C455.701 60 457.815 61.0205 459.544 63.0614C461.338 65.0294 462.234 67.4348 462.234 70.2776V115.433H457.335V95.5341H422.749V115.433H417.849V70.2776C417.849 68.8926 418.074 67.5806 418.522 66.3415C419.034 65.0294 419.675 63.9361 420.443 63.0614C421.276 62.1138 422.237 61.3849 423.325 60.8747C424.414 60.2916 425.599 60 426.88 60H453.204Z" fill="#DE7EFF" fill-opacity="0.86"/>
<path d="M387.004 115.433H382.104V65.4668H364.619V60H404.585V65.4668H387.004V115.433Z" fill="#DE7EFF" fill-opacity="0.86"/>
<path d="M296.676 84.9285H312.816V90.5047H296.676V109.966H331.935V115.433H291.873V60H331.935V65.4668H296.676V84.9285Z" fill="#DE7EFF" fill-opacity="0.86"/>
<path d="M269.09 60C271.587 60 273.701 61.0205 275.43 63.0614C277.16 65.0294 278.024 67.4713 278.024 70.3869V75.5257H273.221V75.307C273.221 72.61 272.708 70.314 271.684 68.4188C270.659 66.5237 268.962 65.5761 266.592 65.5761L245.168 65.3574C242.734 65.3574 241.037 66.3415 240.076 68.3095C239.115 70.2776 238.635 72.61 238.635 75.307V100.126C238.635 101.438 238.731 102.714 238.923 103.953C239.115 105.119 239.436 106.176 239.884 107.124C240.396 107.998 241.037 108.727 241.805 109.31C242.638 109.821 243.663 110.076 244.88 110.076L266.592 110.185C268.962 110.185 270.659 109.201 271.684 107.233C272.708 105.192 273.221 102.823 273.221 100.126V100.017H278.024V105.156C278.024 107.998 277.16 110.44 275.43 112.481C273.701 114.449 271.587 115.433 269.09 115.433H242.766C240.204 115.433 238.059 114.449 236.329 112.481C234.664 110.44 233.831 107.998 233.831 105.156V70.3869C233.831 67.4713 234.664 65.0294 236.329 63.0614C238.059 61.0205 240.204 60 242.766 60H269.09Z" fill="#DE7EFF" fill-opacity="0.86"/>
<path d="M180.882 89.958H215.468V75.307C215.468 72.61 215.019 70.314 214.123 68.4188C213.226 66.5237 211.593 65.5761 209.223 65.5761L186.934 65.6855C184.565 65.6855 182.963 66.633 182.131 68.5282C181.298 70.3504 180.882 72.61 180.882 75.307V89.958ZM211.336 60C213.834 60 215.948 61.0205 217.677 63.0614C219.47 65.0294 220.367 67.4348 220.367 70.2776V115.433H215.468V95.5341H180.882V115.433H175.982V70.2776C175.982 68.8926 176.206 67.5806 176.655 66.3415C177.167 65.0294 177.808 63.9361 178.576 63.0614C179.409 62.1138 180.369 61.3849 181.458 60.8747C182.547 60.2916 183.732 60 185.013 60H211.336Z" fill="#DE7EFF" fill-opacity="0.86"/>
<path d="M122.854 65.4668V84.9285H148.889C151.323 84.9285 153.341 84.0174 154.942 82.1951C156.543 80.3729 157.344 78.0768 157.344 75.307C157.344 72.61 156.543 70.314 154.942 68.4188C153.341 66.4508 151.323 65.4668 148.889 65.4668H122.854ZM148.889 60C150.747 60 152.476 60.4009 154.077 61.2027C155.742 62.0045 157.151 63.0978 158.304 64.4828C159.521 65.8677 160.482 67.5077 161.186 69.4029C161.891 71.2251 162.243 73.1932 162.243 75.307C162.243 77.4208 161.891 79.3889 161.186 81.2111C160.482 83.0334 159.521 84.637 158.304 86.0219C157.151 87.4068 155.742 88.5002 154.077 89.302C152.476 90.1038 150.747 90.5047 148.889 90.5047H122.854V115.433H117.954V60H148.889Z" fill="#DE7EFF" fill-opacity="0.86"/>
<path d="M73.45 65.4668C71.0802 65.4668 69.0307 66.4508 67.3014 68.4188C65.6362 70.314 64.8036 72.61 64.8036 75.307C64.8036 78.0768 65.6362 80.3729 67.3014 82.1951C69.0307 84.0174 71.0802 84.9285 73.45 84.9285H90.935C92.7283 84.9285 94.4256 85.3294 96.0268 86.1312C97.692 86.933 99.1331 88.0264 100.35 89.4113C101.631 90.7962 102.624 92.4363 103.328 94.3314C104.033 96.1537 104.385 98.0853 104.385 100.126C104.385 102.24 104.033 104.245 103.328 106.14C102.624 107.962 101.631 109.566 100.35 110.95C99.1331 112.335 97.692 113.429 96.0268 114.23C94.4256 115.032 92.7283 115.433 90.935 115.433H60V109.966H90.935C93.3047 109.966 95.3222 109.019 96.9875 107.124C98.6527 105.156 99.4853 102.823 99.4853 100.126C99.4853 97.3564 98.6527 95.0603 96.9875 93.238C95.3222 91.4158 93.3047 90.5047 90.935 90.5047H73.45C71.5926 90.5047 69.8313 90.1038 68.1661 89.302C66.5649 88.5002 65.1558 87.4068 63.9389 86.0219C62.722 84.637 61.7613 83.0334 61.0568 81.2111C60.3523 79.3889 60 77.4208 60 75.307C60 73.1932 60.3523 71.2251 61.0568 69.4029C61.7613 67.5077 62.722 65.8677 63.9389 64.4828C65.1558 63.0978 66.5649 62.0045 68.1661 61.2027C69.8313 60.4009 71.5926 60 73.45 60H104.385V65.4668H73.45Z" fill="#DE7EFF" fill-opacity="0.86"/>
</g>
<defs>
<filter id="filter0_d_305_8" x="50" y="54" width="639" height="75.4332" filterUnits="userSpaceOnUse" color-interpolation-filters="sRGB">
<feFlood flood-opacity="0" result="BackgroundImageFix"/>
<feColorMatrix in="SourceAlpha" type="matrix" values="0 0 0 0 0 0 0 0 0 0 0 0 0 0 0 0 0 0 127 0" result="hardAlpha"/>
<feOffset dy="4"/>
<feGaussianBlur stdDeviation="5"/>
<feComposite in2="hardAlpha" operator="out"/>
<feColorMatrix type="matrix" values="0 0 0 0 0.206923 0 0 0 0 0.110559 0 0 0 0 0.240781 0 0 0 1 0"/>
<feBlend mode="normal" in2="BackgroundImageFix" result="effect1_dropShadow_305_8"/>
<feBlend mode="normal" in="SourceGraphic" in2="effect1_dropShadow_305_8" result="shape"/>
</filter>
<filter id="filter1_f_305_8" x="50" y="50" width="639" height="75.4332" filterUnits="userSpaceOnUse" color-interpolation-filters="sRGB">
<feFlood flood-opacity="0" result="BackgroundImageFix"/>
<feBlend mode="normal" in="SourceGraphic" in2="BackgroundImageFix" result="shape"/>
<feGaussianBlur stdDeviation="5" result="effect1_foregroundBlur_305_8"/>
</filter>
<filter id="filter2_f_305_8" x="35" y="35" width="669" height="105.433" filterUnits="userSpaceOnUse" color-interpolation-filters="sRGB">
<feFlood flood-opacity="0" result="BackgroundImageFix"/>
<feBlend mode="normal" in="SourceGraphic" in2="BackgroundImageFix" result="shape"/>
<feGaussianBlur stdDeviation="12.5" result="effect1_foregroundBlur_305_8"/>
</filter>
<filter id="filter3_f_305_8" x="0" y="0" width="739" height="175.433" filterUnits="userSpaceOnUse" color-interpolation-filters="sRGB">
<feFlood flood-opacity="0" result="BackgroundImageFix"/>
<feBlend mode="normal" in="SourceGraphic" in2="BackgroundImageFix" result="shape"/>
<feGaussianBlur stdDeviation="30" result="effect1_foregroundBlur_305_8"/>
</filter>
</defs>
</svg>
