<svg width="39" height="35" viewBox="0 0 39 35" fill="none" xmlns="http://www.w3.org/2000/svg">
<path d="M19.5002 5.94232L18.5327 6.88232C18.658 7.01353 18.8083 7.1179 18.9745 7.18919C19.1408 7.26048 19.3195 7.29722 19.5002 7.29722C19.6808 7.29722 19.8596 7.26048 20.0258 7.18919C20.192 7.1179 20.3423 7.01353 20.4677 6.88232L19.5002 5.94232ZM10.5436 25.6823C10.268 25.4536 9.91366 25.3448 9.55851 25.3797C9.20335 25.4146 8.87649 25.5904 8.64983 25.8685C8.42317 26.1466 8.31527 26.5041 8.34988 26.8624C8.38449 27.2208 8.55877 27.5506 8.83437 27.7792L10.5436 25.6823ZM2.19625 20.243C2.28095 20.3992 2.39532 20.537 2.53282 20.6486C2.67032 20.7602 2.82826 20.8434 2.99763 20.8934C3.16699 20.9435 3.34447 20.9593 3.51991 20.9402C3.69536 20.921 3.86535 20.8671 4.02016 20.7817C4.17498 20.6962 4.3116 20.5808 4.42222 20.4421C4.53284 20.3034 4.61529 20.144 4.66487 19.9731C4.71445 19.8022 4.73018 19.6232 4.71117 19.4462C4.69216 19.2691 4.63878 19.0976 4.55408 18.9414L2.19625 20.243ZM2.92725 12.5169C2.92725 8.63036 5.10412 5.36928 8.0765 3.99724C10.9647 2.66497 14.8454 3.01747 18.5327 6.88232L20.4677 5.00413C16.096 0.418013 11.0148 -0.339411 6.9585 1.53155C2.99175 3.36274 0.239746 7.61444 0.239746 12.5169H2.92725ZM13.224 31.25C14.1431 31.9803 15.1285 32.7576 16.1265 33.3469C17.1244 33.9344 18.2639 34.4135 19.5002 34.4135V31.7019C18.9447 31.7019 18.2926 31.485 17.4827 31.006C16.6711 30.5287 15.8308 29.8707 14.8884 29.1206L13.224 31.25ZM25.7764 31.25C28.3313 29.2164 31.5993 26.8881 34.1614 23.9759C36.7718 21.0112 38.7606 17.3362 38.7606 12.5169H36.0731C36.0731 16.4902 34.4606 19.5506 32.1529 22.1754C29.7969 24.8508 26.8281 26.9604 24.1119 29.1206L25.7764 31.25ZM38.7606 12.5169C38.7606 7.61444 36.0104 3.36274 32.0418 1.53155C27.9855 -0.339411 22.9079 0.418013 18.5327 5.00232L20.4677 6.88232C24.1549 3.01928 28.0357 2.66497 30.9238 3.99724C33.8962 5.36928 36.0731 8.62855 36.0731 12.5169H38.7606ZM24.1119 29.1206C23.1695 29.8707 22.3292 30.5287 21.5176 31.006C20.7077 31.4832 20.0556 31.7019 19.5002 31.7019V34.4135C20.7364 34.4135 21.8759 33.9344 22.8739 33.3469C23.8736 32.7576 24.8572 31.9803 25.7764 31.25L24.1119 29.1206ZM14.8884 29.1206C13.4622 27.9871 12.0128 26.9025 10.5436 25.6823L8.83437 27.7792C10.3215 29.0139 11.8945 30.1925 13.224 31.25L14.8884 29.1206ZM4.55408 18.9432C3.47479 16.9772 2.91459 14.7643 2.92725 12.5169H0.239746C0.239746 15.4779 0.992246 18.0213 2.19625 20.243L4.55408 18.9432Z" fill="black"/>
</svg>
